# AST/ASF file generated using VICON BodyLanguage
# -----------------------------------------------
:version 1.10
:name VICON
:units
  mass 1.0
  length 0.45
  angle deg
:documentation
   .ast/.asf automatically generated from VICON data using
   VICON BodyBuilder and BodyLanguage model FoxedUp or BRILLIANT.MOD
:root
   order TX TY TZ RX RY RZ
   axis XYZ
   position 0 0 0  
   orientation 0 0 0 
:bonedata
  begin
     id 1 
     name lhipjoint
     direction 0.707368 -0.647095 0.284426 
     length 2.60678 
     axis 0 0 0  XYZ
  end
  begin
     id 2 
     name lfemur
     direction 0.34202 -0.939693 0  
     length 6.63812  
     axis 0 0 20  XYZ
    dof rx ry rz
    limits (-160.0 20.0)
           (-70.0 70.0)
           (-60.0 70.0)
  end
  begin
     id 3 
     name ltibia
     direction 0.34202 -0.939693 0   
     length 7.51178   
     axis 0 0 20   XYZ
    dof rx
    limits (-10.0 170.0)
  end
  begin
     id 4 
     name lfoot
     direction 0.121251 -0.333133 0.935051   
     length 1.83716   
     axis -90 7.62852e-016 20   XYZ
    dof rx rz
    limits (-45.0 90.0)
           (-70.0 20.0)
  end
  begin
     id 5 
     name ltoes
     direction 1.53611e-011 -4.21962e-011 1   
     length 0.916133   
     axis -90 7.62852e-016 20   XYZ
    dof rx
    limits (-90.0 20.0)
  end
  begin
     id 6 
     name rhipjoint
     direction -0.692419 -0.660507 0.290321   
     length 2.55385  
     axis 0 0 0  XYZ 
  end
  begin
     id 7 
     name rfemur
     direction -0.34202 -0.939693 0   
     length 7.29079   
     axis 0 0 -20   XYZ
    dof rx ry rz
    limits (-160.0 20.0)
           (-70.0 70.0)
           (-70.0 60.0)
  end
  begin
     id 8 
     name rtibia
     direction -0.34202 -0.939693 0   
     length 7.47143   
     axis 0 0 -20   XYZ
    dof rx
    limits (-10.0 170.0)
 end
 begin
     id 9 
     name rfoot
     direction -0.119907 -0.329441 0.936532   
     length 1.79439  
     axis -90 -7.62852e-016 -20   XYZ
    dof rx rz
    limits (-45.0 90.0)
           (-20.0 70.0)
  end
  begin
     id 10 
     name rtoes
     direction -1.53571e-011 -4.21961e-011 1   
     length 0.896039   
     axis -90 -7.62852e-016 -20   XYZ
    dof rx
    limits (-90.0 20.0)
  end
  begin
     id 11 
     name lowerback
     direction 0.0367721 0.992912 -0.113016   
     length 1.73542   
     axis 0 0 0   XYZ
    dof rx ry rz
    limits (-20.0 45.0)
           (-30.0 30.0)
           (-30.0 30.0)
  end
  begin
     id 12 
     name upperback
     direction -0.000314626 0.990678 0.136227   
     length 1.7514   
     axis 0 0 0   XYZ
    dof rx ry rz
    limits (-20.0 45.0)
           (-30.0 30.0)
           (-30.0 30.0)
  end
  begin
     id 13 
     name thorax
     direction -0.0226159 0.981151 0.191917   
     length 1.71471   
     axis 0 0 0   XYZ
    dof rx ry rz
    limits (-20.0 45.0)
           (-30.0 30.0)
           (-30.0 30.0)
  end
  begin
     id 14 
     name lowerneck
     direction 0.0219333 0.998071 0.0580739   
     length 1.65882   
     axis 0 0 0   XYZ
    dof rx ry rz
    limits (-20.0 45.0)
           (-30.0 30.0)
           (-30.0 30.0)
  end
  begin
     id 15 
     name upperneck
     direction 0.0384529 0.980058 -0.194957   
     length 1.6612   
     axis 0 0 0   XYZ
    dof rx ry rz
    limits (-20.0 45.0)
           (-30.0 30.0)
           (-30.0 30.0)
  end
  begin
     id 16
     name head
     direction 0.00592123 0.997421 -0.0715234  
     length 1.68077  
     axis 0 0 0   XYZ
    dof rx ry rz
    limits (-20.0 45.0)
           (-30.0 30.0)
           (-30.0 30.0)
  end
  begin
     id 17 
     name lclavicle
     direction 0.904803 0.417826 0.0821728  
     length 3.42227  
     axis 0 0 0   XYZ
    dof ry rz
    limits (-20.0 10.0)
           (0.0 20.0)
  end
  begin
     id 18 
     name lhumerus
     direction 1 -4.48965e-011 -2.68786e-027   
     length 5.11878   
     axis -180 -30 -90   XYZ
    dof rx ry rz
    limits (-60.0 90.0)
           (-90.0 90.0)
           (-90.0 90.0)
  end
  begin
     id 19
     name lradius
     direction 1 -4.48965e-011 2.61168e-028   
     length 3.59971   
     axis -180 -30 -90   XYZ
    dof rx
    limits (-10.0 170.0)
  end
  begin
     id 20
     name lwrist
     direction 1 -4.48965e-011 1.58672e-027   
     length 1.79985   
     axis -1.65735e-015 90 90   XYZ
    dof ry
    limits (-180.0 0.0)
 end
  begin
     id 21 
     name lhand
     direction 1 -4.48942e-011 3.17344e-027   
     length 0.62877   
     axis -2.02492e-015 90 90   XYZ
    dof rx rz
    limits (-90.0 90.0)
           (-45.0 45.0)
  end
  begin
     id 22 
     name lfingers
     direction 1 -4.49011e-011 6.34687e-027   
     length 0.506931   
     axis -4.04985e-015 90 90   XYZ
    dof rx
    limits (0.0 90.0)
  end
  begin
     id 23
     name lthumb
     direction 0.707107 -6.34982e-011 0.707107   
     length 0.727854   
     axis -90 45 2.85299e-015   XYZ
    dof rx rz
    limits (-45.0 45.0)
           (-45.0 45.0)
  end
  begin
     id 24 
     name rclavicle
     direction -0.945647 0.32488 0.0143075   
     length 3.52737  
     axis 0 0 0   XYZ 
    dof ry rz
    limits (-10.0 20.0)
           (-20.0 0.0)
  end
  begin
     id 25 
     name rhumerus
     direction -1 -4.48962e-011 1.92182e-027  
     length 5.4902   
     axis -180 30 90   XYZ
    dof rx ry rz
    limits (-90.0 60.0)
           (-90.0 90.0)
           (-90.0 90.0)
  end
  begin
     id 26 
     name rradius
     direction -1 -4.48967e-011 -5.97193e-028   
     length 3.20659   
     axis -180 30 90   XYZ
    dof rx
    limits (-10.0 170.0)
  end
  begin
     id 27 
     name rwrist
     direction -1 -4.48964e-011 1.58672e-027   
     length 1.6033   
     axis -1.65735e-015 -90 -90   XYZ
    dof ry
    limits (-180.0 0.0)
  end
  begin
     id 28
     name rhand
     direction -1 -4.49006e-011 3.17344e-027   
     length 0.691885   
     axis -2.02492e-015 -90 -90   XYZ
    dof rx rz
    limits (-90.0 90.0)
           (-45.0 45.0)
  end
  begin
     id 29
     name rfingers
     direction -1 -4.48908e-011 6.34687e-027   
     length 0.557815   
     axis -4.04985e-015 -90 -90   XYZ
    dof rx
    limits (0.0 90.0)
  end
  begin
     id 30
     name rthumb
     direction -0.707107 -6.34999e-011 0.707107   
     length 0.800915   
     axis -90 -45 -2.85299e-015   XYZ
    dof rx rz
    limits (-45.0 45.0)
           (-45.0 45.0)
  end
:hierarchy
  begin
    root lhipjoint rhipjoint lowerback
    lhipjoint lfemur
    lfemur ltibia
    ltibia lfoot
    lfoot ltoes
    rhipjoint rfemur
    rfemur rtibia
    rtibia rfoot
    rfoot rtoes
    lowerback upperback
    upperback thorax
    thorax lowerneck lclavicle rclavicle
    lowerneck upperneck
    upperneck head
    lclavicle lhumerus
    lhumerus lradius
    lradius lwrist
    lwrist lhand lthumb
    lhand lfingers
    rclavicle rhumerus
    rhumerus rradius
    rradius rwrist
    rwrist rhand rthumb
    rhand rfingers
  end

#!OML:ASF I:\Actors\actors\Patient Classification 1\Patient 1\Session 1\Subject1.ASF
:FULLY-SPECIFIED
:DEGREES
57
root 0.11227 17.5255 8.49263 11.3844 -0.853213 -7.88195
lowerback -0.294771 0.774454 5.95969
upperback -10.1877 1.44864 0.815579
thorax -10.5957 0.219966 -2.57476
lowerneck -3.09574 -14.6321 -12.1748
upperneck 25.1674 -22.468 10.9883
head 11.3517 -10.6037 3.06726
rclavicle 3.08116e-015 1.47101e-014
rhumerus -47.8247 -36.1597 -60.2887
rradius 16.3532
rwrist 62.6342
rhand 5.3881 -30.1045
rfingers 7.12502
rthumb 30.7401 -57.5552
lclavicle 3.08116e-015 1.47101e-014
lhumerus -40.4259 18.4083 76.5557
lradius 17.8107
lwrist -33.2409
lhand -15.6548 -12.8119
lfingers 7.12502
lthumb 10.5331 16.9041
rfemur -5.56718 24.62 22.9679
rtibia 1.82072
rfoot -12.5192 -27.2579
rtoes 4.49278
lfemur 1.86891 -46.2082 -10.7398
ltibia -4.21383
lfoot -24.1131 54.5072
ltoes 12.1527
58
root 0.112233 17.5253 8.49406 11.3956 -0.840447 -7.8484
lowerback -0.302023 0.765211 5.90896
upperback -10.1911 1.4336 0.823245
thorax -10.5968 0.217502 -2.53692
lowerneck -3.09959 -14.6582 -12.1571
upperneck 25.1496 -22.47 10.8735
head 11.3275 -10.6141 3.02486
rclavicle -7.55382e-015 2.62396e-014
rhumerus -47.7889 -36.0753 -60.3153
rradius 16.3365
rwrist 62.5713
rhand 5.462 -30.1379
rfingers 7.12502
rthumb 30.8105 -57.5753
lclavicle -7.55382e-015 2.62396e-014
lhumerus -40.4164 18.4184 76.6148
lradius 17.8569
lwrist -32.9316
lhand -15.5338 -12.5892
lfingers 7.12502
lthumb 10.6499 17.1209
rfemur -5.56602 24.6358 22.9321
rtibia 1.81992
rfoot -12.5059 -27.3011
rtoes 4.35702
lfemur 1.85498 -46.241 -10.7695
ltibia -4.19846
lfoot -24.2049 54.4903
ltoes 12.317
59
root 0.111617 17.5252 8.49544 11.3988 -0.834693 -7.83396
lowerback -0.304312 0.801353 5.89499
upperback -10.2064 1.47837 0.775934
thorax -10.6077 0.23754 -2.58381
lowerneck -3.06014 -14.6701 -12.0895
upperneck 25.1944 -22.5031 10.864
head 11.3318 -10.6251 3.01008
rclavicle -6.26172e-015 -1.86858e-014
rhumerus -47.934 -36.1193 -60.2521
rradius 16.3577
rwrist 62.5421
rhand 5.62364 -30.2003
rfingers 7.12502
rthumb 30.9646 -57.6085
lclavicle -6.26172e-015 -1.86858e-014
lhumerus -40.3746 18.2625 76.6783
lradius 17.863
lwrist -32.7497
lhand -15.5121 -12.5259
lfingers 7.12502
lthumb 10.6708 17.1832
rfemur -5.54853 24.6832 22.9261
rtibia 1.79236
rfoot -12.4551 -27.3859
rtoes 4.16909
lfemur 1.85391 -46.2645 -10.784
ltibia -4.19106
lfoot -24.2017 54.5132
ltoes 12.3083
60
root 0.110361 17.5255 8.4974 11.4004 -0.820048 -7.86537
lowerback -0.316778 0.880858 5.94767
upperback -10.2344 1.58165 0.683647
thorax -10.6203 0.277537 -2.72092
lowerneck -2.86449 -14.7172 -11.9939
upperneck 25.1073 -22.5958 10.8999
head 11.2665 -10.6693 3.01178
rclavicle 4.17448e-015 3.10104e-014
rhumerus -48.271 -36.3256 -60.0536
rradius 16.4001
rwrist 62.6076
rhand 5.85725 -30.1775
rfingers 7.12502
rthumb 31.1873 -57.5431
lclavicle 4.17448e-015 3.10104e-014
lhumerus -40.3141 17.8886 76.7784
lradius 17.8504
lwrist -32.5608
lhand -15.5975 -12.6452
lfingers 7.12502
lthumb 10.5884 17.0681
rfemur -5.52487 24.7637 22.9744
rtibia 1.76211
rfoot -12.4787 -27.4681
rtoes 4.1662
lfemur 1.8387 -46.1871 -10.7199
ltibia -4.20831
lfoot -24.0714 54.4599
ltoes 12.1547
61
root 0.110246 17.5248 8.49872 11.4275 -0.819565 -7.91508
lowerback -0.347617 0.896816 6.00356
upperback -10.2416 1.60468 0.687788
thorax -10.6078 0.284331 -2.74887
lowerneck -2.81075 -14.7255 -12.0319
upperneck 25.0318 -22.6015 10.9205
head 11.2359 -10.6783 3.02811
rclavicle 9.54166e-015 -9.14409e-015
rhumerus -48.3561 -36.3604 -59.974
rradius 16.3874
rwrist 62.7116
rhand 6.07266 -29.9986
rfingers 7.12502
rthumb 31.3926 -57.3245
lclavicle 9.54166e-015 -9.14409e-015
lhumerus -40.2879 17.9577 76.7639
lradius 17.8057
lwrist -32.6786
lhand -15.6531 -12.7536
lfingers 7.12502
lthumb 10.5348 16.9624
rfemur -5.56028 24.783 23.0201
rtibia 1.78255
rfoot -12.5464 -27.457
rtoes 4.34554
lfemur 1.77836 -46.0811 -10.6114
ltibia -4.21584
lfoot -23.9748 54.3869
ltoes 12.0184
62
root 0.110027 17.5235 8.4996 11.4682 -0.838632 -7.96806
lowerback -0.399354 0.851447 6.02455
upperback -10.2097 1.54768 0.793334
thorax -10.548 0.262783 -2.64111
lowerneck -3.026 -14.7035 -12.1665
upperneck 25.1099 -22.5277 10.854
head 11.3049 -10.6477 3.01568
rclavicle 2.98177e-015 -7.15625e-015
rhumerus -48.1253 -36.1876 -60.0859
rradius 16.3553
rwrist 62.7056
rhand 6.26016 -29.7006
rfingers 7.12502
rthumb 31.5712 -56.9917
lclavicle 2.98177e-015 -7.15625e-015
lhumerus -40.2625 18.3864 76.7037
lradius 17.7662
lwrist -32.9659
lhand -15.6036 -12.712
lfingers 7.12502
lthumb 10.5826 17.0016
rfemur -5.62185 24.7773 23.0648
rtibia 1.81269
rfoot -12.4982 -27.4336
rtoes 4.35116
lfemur 1.70398 -46.0062 -10.4957
ltibia -4.2127
lfoot -23.8794 54.3685
ltoes 11.7698
63
root 0.108914 17.523 8.50095 11.5013 -0.849576 -8.0083
lowerback -0.451151 0.842693 6.04142
upperback -10.186 1.53591 0.845275
thorax -10.4919 0.260562 -2.5926
lowerneck -3.2171 -14.7178 -12.2188
upperneck 25.2164 -22.5199 10.7778
head 11.3776 -10.6417 2.97952
rclavicle -3.38928e-014 2.42517e-014
rhumerus -47.9567 -35.9923 -60.2622
rradius 16.368
rwrist 62.4525
rhand 6.49248 -29.4518
rfingers 7.12502
rthumb 31.7925 -56.6991
lclavicle -3.38928e-014 2.42517e-014
lhumerus -40.2127 18.534 76.7267
lradius 17.7573
lwrist -33.0925
lhand -15.5073 -12.7374
lfingers 7.12502
lthumb 10.6754 16.9714
rfemur -5.65555 24.8056 23.1002
rtibia 1.81371
rfoot -12.4663 -27.4345
rtoes 4.41988
lfemur 1.63583 -45.9447 -10.393
ltibia -4.20215
lfoot -23.8268 54.3381
ltoes 11.5848
64
root 0.108488 17.5231 8.50378 11.4894 -0.837233 -8.01059
lowerback -0.469795 0.848758 6.03935
upperback -10.1715 1.5416 0.841295
thorax -10.4635 0.264509 -2.59577
lowerneck -3.27923 -14.7386 -12.202
upperneck 25.2481 -22.5453 10.7556
head 11.4 -10.6493 2.95938
rclavicle 5.06901e-015 -1.82882e-014
rhumerus -47.9303 -35.8714 -60.3685
rradius 16.3988
rwrist 62.227
rhand 6.83685 -29.3008
rfingers 7.12502
rthumb 32.1204 -56.4825
lclavicle 5.06901e-015 -1.82882e-014
lhumerus -40.1867 18.5184 76.7571
lradius 17.7649
lwrist -33.1299
lhand -15.4022 -12.8685
lfingers 7.12502
lthumb 10.7769 16.8351
rfemur -5.61273 24.8243 23.1149
rtibia 1.79879
rfoot -12.5376 -27.4315
rtoes 4.51718
lfemur 1.6466 -45.9049 -10.4027
ltibia -4.17324
lfoot -23.9174 54.2601
ltoes 11.7163
65
root 0.10829 17.5228 8.50597 11.4707 -0.8209 -7.98679
lowerback -0.474816 0.836322 5.99901
upperback -10.1608 1.52195 0.843673
thorax -10.45 0.25922 -2.56906
lowerneck -3.25213 -14.7202 -12.1951
upperneck 25.1792 -22.5219 10.7967
head 11.3697 -10.6378 2.98006
rclavicle -1.55052e-014 2.42517e-014
rhumerus -47.9778 -35.9052 -60.2998
rradius 16.4072
rwrist 62.2921
rhand 7.29912 -29.0598
rfingers 7.12502
rthumb 32.5604 -56.1518
lclavicle -1.55052e-014 2.42517e-014
lhumerus -40.1762 18.5675 76.7572
lradius 17.7609
lwrist -33.1405
lhand -15.3182 -12.9079
lfingers 7.12502
lthumb 10.8578 16.7914
rfemur -5.56564 24.8153 23.1033
rtibia 1.7697
rfoot -12.521 -27.448
rtoes 4.33521
lfemur 1.67174 -45.9284 -10.4616
ltibia -4.13729
lfoot -23.9923 54.2363
ltoes 11.8892
66
root 0.107966 17.5225 8.50636 11.4797 -0.818617 -7.97833
lowerback -0.47793 0.829278 5.96603
upperback -10.161 1.5111 0.851703
thorax -10.4497 0.257283 -2.54116
lowerneck -3.16898 -14.6901 -12.2053
upperneck 25.0433 -22.4882 10.8884
head 11.3107 -10.6234 3.02781
rclavicle -8.54774e-015 -7.55382e-015
rhumerus -48.074 -36.0381 -60.1306
rradius 16.4018
rwrist 62.5023
rhand 7.69177 -28.7376
rfingers 7.12502
rthumb 32.9339 -55.7517
lclavicle -8.54774e-015 -7.55382e-015
lhumerus -40.1553 18.5584 76.8033
lradius 17.7569
lwrist -33.0784
lhand -15.3718 -12.8943
lfingers 7.12502
lthumb 10.8061 16.8077
rfemur -5.58295 24.7737 23.085
rtibia 1.76459
rfoot -12.4949 -27.4142
rtoes 4.37828
lfemur 1.65354 -45.9582 -10.4581
ltibia -4.13563
lfoot -23.9036 54.2854
ltoes 11.8248
67
root 0.107136 17.5228 8.50674 11.4732 -0.814703 -7.98272
lowerback -0.457673 0.834704 5.94534
upperback -10.1501 1.51785 0.844307
thorax -10.4486 0.262267 -2.53851
lowerneck -3.16378 -14.7011 -12.1493
upperneck 24.9813 -22.5048 10.9039
head 11.283 -10.6268 3.02424
rclavicle -2.13694e-014 7.55382e-015
rhumerus -48.1517 -36.1493 -60.0329
rradius 16.4034
rwrist 62.6176
rhand 7.86435 -28.5293
rfingers 7.12502
rthumb 33.098 -55.5087
lclavicle -2.13694e-014 7.55382e-015
lhumerus -40.1185 18.443 76.8949
lradius 17.7775
lwrist -33.0457
lhand -15.5601 -12.901
lfingers 7.12502
lthumb 10.6245 16.8104
rfemur -5.58819 24.7166 23.0905
rtibia 1.78382
rfoot -12.5669 -27.345
rtoes 4.6595
lfemur 1.6408 -45.8935 -10.4368
ltibia -4.13445
lfoot -23.8353 54.2297
ltoes 11.7525
68
root 0.105995 17.5233 8.50741 11.4744 -0.803658 -8.02425
lowerback -0.448168 0.885071 5.99129
upperback -10.1531 1.58438 0.782938
thorax -10.4499 0.287441 -2.63556
lowerneck -3.11861 -14.753 -12.0347
upperneck 24.9508 -22.5993 10.9263
head 11.2641 -10.6614 3.00473
rclavicle 1.20265e-014 3.73715e-014
rhumerus -48.2861 -36.2436 -60.0146
rradius 16.4179
rwrist 62.5719
rhand 7.93912 -28.4304
rfingers 7.12502
rthumb 33.1691 -55.3948
lclavicle 1.20265e-014 3.73715e-014
lhumerus -40.0589 18.1633 76.9793
lradius 17.7785
lwrist -33.1079
lhand -15.676 -12.9249
lfingers 7.12502
lthumb 10.5127 16.7922
rfemur -5.59379 24.6824 23.1433
rtibia 1.79802
rfoot -12.596 -27.3178
rtoes 4.67252
lfemur 1.62628 -45.8545 -10.3708
ltibia -4.13022
lfoot -23.8582 54.1826
ltoes 11.7303
69
root 0.105405 17.5238 8.50838 11.5046 -0.80314 -8.1127
lowerback -0.470649 0.977273 6.11237
upperback -10.1879 1.70808 0.692215
thorax -10.4616 0.331501 -2.81006
lowerneck -2.98774 -14.8248 -11.9135
upperneck 24.9215 -22.7417 10.9817
head 11.2398 -10.7189 2.9947
rclavicle -1.60022e-014 2.38542e-014
rhumerus -48.5247 -36.3326 -59.9931
rradius 16.4622
rwrist 62.4396
rhand 8.02662 -28.3792
rfingers 7.12502
rthumb 33.2523 -55.3258
lclavicle -1.60022e-014 2.38542e-014
lhumerus -40.01 17.7819 77.0413
lradius 17.7387
lwrist -33.2009
lhand -15.6792 -13.0183
lfingers 7.12502
lthumb 10.5096 16.6989
rfemur -5.63191 24.6645 23.2375
rtibia 1.81455
rfoot -12.555 -27.297
rtoes 4.46921
lfemur 1.62984 -45.9684 -10.2619
ltibia -4.15947
lfoot -23.9121 54.3342
ltoes 11.6725
70
root 0.104968 17.524 8.5092 11.5289 -0.812786 -8.15739
lowerback -0.501242 0.980577 6.12482
upperback -10.1896 1.71303 0.718295
thorax -10.4453 0.334781 -2.78868
lowerneck -3.04709 -14.837 -11.9058
upperneck 24.981 -22.7529 10.9394
head 11.2686 -10.722 2.9713
rclavicle 9.93923e-017 2.54444e-014
rhumerus -48.4447 -36.1709 -60.1615
rradius 16.4903
rwrist 62.288
rhand 8.08458 -28.4763
rfingers 7.12502
rthumb 33.3074 -55.4112
lclavicle 9.93923e-017 2.54444e-014
lhumerus -40.0167 17.8188 77.0364
lradius 17.7026
lwrist -33.4108
lhand -15.7378 -13.1456
lfingers 7.12502
lthumb 10.4531 16.5746
rfemur -5.65683 24.6602 23.2816
rtibia 1.8082
rfoot -12.4908 -27.2935
rtoes 4.22002
lfemur 1.63426 -46.0857 -10.2155
ltibia -4.16031
lfoot -24.0082 54.463
ltoes 11.7459
71
root 0.10435 17.5232 8.509 11.5642 -0.821539 -8.14713
lowerback -0.545057 0.902225 6.03303
upperback -10.1607 1.60731 0.8401
thorax -10.3996 0.299649 -2.5973
lowerneck -3.23851 -14.7741 -12.0731
upperneck 25.0688 -22.6305 10.91
head 11.3396 -10.6697 2.98647
rclavicle -1.78906e-015 -2.0276e-014
rhumerus -48.0221 -35.7321 -60.5658
rradius 16.4908
rwrist 62.0904
rhand 7.99311 -28.6881
rfingers 7.12502
rthumb 33.2205 -55.6415
lclavicle -1.78906e-015 -2.0276e-014
lhumerus -40.0482 18.2104 76.9953
lradius 17.6809
lwrist -33.7317
lhand -15.8981 -13.2486
lfingers 7.12502
lthumb 10.2985 16.4792
rfemur -5.7017 24.6524 23.253
rtibia 1.79905
rfoot -12.4277 -27.3036
rtoes 4.01131
lfemur 1.57797 -46.1105 -10.1954
ltibia -4.12918
lfoot -24.1249 54.4606
ltoes 11.9455
